<?xml version="1.0" encoding="UTF-8" standalone="no"?>
<svg width="1379px" height="237px" viewBox="0 0 1379 237" version="1.1" xmlns="http://www.w3.org/2000/svg" xmlns:xlink="http://www.w3.org/1999/xlink" xmlns:sketch="http://www.bohemiancoding.com/sketch/ns">
    <!-- Generator: Sketch 3.3.2 (12043) - http://www.bohemiancoding.com/sketch -->
    <title>bred in bone</title>
    <desc>Created with Sketch.</desc>
    <defs></defs>
    <g id="Page-2" stroke="none" stroke-width="1" fill="none" fill-rule="evenodd" sketch:type="MSPage">
        <path d="M116.979533,92.9038882 L124.942723,92.9038882 L144.126773,38.6094081 C152.693236,14.478528 158.122684,8.80777122 165.361948,8.32515362 L165.361948,6.99795522 L132.664605,6.99795522 L132.664605,8.32515362 C142.920229,9.65235202 147.022479,20.3905936 139.66256,41.7464225 L132.061333,63.7055233 L116.61757,23.0449905 C113.239247,14.1165648 112.635975,9.77300642 118.789349,8.32515362 L118.789349,6.99795522 L78.0081618,6.99795522 L78.0081618,8.32515362 C82.593029,10.1349696 85.3680802,12.668712 91.7627634,28.8364017 L94.1758514,35.1104305 L83.196301,64.3087953 L68.8384274,26.7852769 C64.1329057,14.478528 64.1329057,9.89366082 71.0102066,8.32515362 L71.0102066,6.99795522 L27.4539681,6.99795522 L27.4539681,8.32515362 C32.7627617,9.89366082 36.9856657,14.3578736 42.6564225,28.8364017 L67.6318834,92.9038882 L75.5950738,92.9038882 L95.865013,39.3333345 L116.979533,92.9038882 Z M201.678922,90.3701458 C199.265834,90.0081826 197.335364,88.0777122 197.335364,82.7689186 L197.335364,46.9345617 C199.507143,45.0040913 201.678922,43.9182017 204.09201,43.9182017 C207.590988,43.9182017 210.245384,46.2106353 210.245384,50.7955025 L210.245384,82.7689186 C210.245384,88.319021 208.797532,90.0081826 205.660517,90.3701458 L205.660517,91.4560354 L239.081786,91.4560354 L239.081786,90.2494914 C235.824117,89.8875282 233.169721,87.715749 233.169721,82.4069554 L233.169721,49.7096129 C233.169721,39.0920257 226.533729,33.6625777 217.484648,33.6625777 C209.762767,33.6625777 202.644157,37.8854817 197.335364,43.7975473 L197.335364,0.361963201 L196.370128,0 L167.775036,6.99795522 L167.775036,8.32515362 C170.91205,8.32515362 174.290373,9.65235202 174.290373,16.288344 L174.290373,82.4069554 C174.290373,87.715749 171.635976,89.8875282 168.98158,90.2494914 L168.98158,91.4560354 L201.678922,91.4560354 L201.678922,90.3701458 Z M270.693239,84.3374258 C266.711644,84.3374258 263.092012,81.4417202 263.092012,75.047037 C263.092012,68.5316994 266.229026,62.8609425 274.55418,59.9652369 L274.55418,77.7014338 C274.55418,79.6319042 274.674834,81.4417202 275.036797,83.0102274 C273.588945,83.9754626 272.261746,84.3374258 270.693239,84.3374258 L270.693239,84.3374258 Z M288.188127,93.6278146 C296.513281,93.6278146 303.63189,89.4049106 306.768905,83.492845 L305.441706,82.5276098 C304.114508,84.3374258 302.425346,85.1820066 300.977493,85.1820066 C299.047023,85.1820066 297.719825,83.7341538 297.719825,81.8036834 L297.719825,53.2085905 C297.719825,41.7464225 288.791399,33.6625777 270.934548,33.6625777 C253.922277,33.6625777 246.200396,39.4539889 246.200396,46.8139073 C246.200396,51.8813921 250.061337,55.2597153 255.008167,55.2597153 C258.869108,55.2597153 262.730049,53.3292449 264.660519,48.9856865 C267.43557,42.9529665 264.41921,35.7137025 269.969313,35.7137025 C273.106327,35.7137025 274.55418,37.5235185 274.55418,43.7975473 L274.55418,57.7934577 C249.578719,63.9468321 242.822073,72.030677 242.822073,80.7177938 C242.822073,89.2842562 249.940682,93.748469 257.179946,93.748469 C263.453975,93.748469 270.693239,90.732109 275.640069,85.6646242 C277.57054,91.2147266 281.914098,93.6278146 288.188127,93.6278146 L288.188127,93.6278146 Z M349.118599,38.6094081 L349.118599,35.8343569 L337.053159,35.8343569 L337.053159,10.255624 L335.243343,10.255624 C330.899785,21.5971376 318.231073,34.5071585 307.975449,37.5235185 L307.975449,38.8507169 L314.128823,38.8507169 L314.128823,79.0286322 C314.128823,87.5950946 320.040889,93.5071602 328.969314,93.5071602 C338.501012,93.5071602 346.826166,86.6298594 351.169724,78.4253602 L349.601217,77.460125 C347.791401,80.1145218 345.619622,81.3210658 343.085879,81.3210658 C339.948865,81.3210658 337.053159,78.5460146 337.053159,73.237221 L337.053159,38.6094081 L349.118599,38.6094081 Z M366.854796,41.8670769 C370.715737,30.7668721 377.713692,23.8895713 377.713692,15.8057264 C377.713692,8.68711682 371.922281,4.82617601 366.13087,4.82617601 C360.218804,4.82617601 354.548047,8.68711682 354.548047,15.8057264 C354.548047,23.8895713 361.425348,30.7668721 365.406943,41.8670769 L366.854796,41.8670769 Z M407.032711,91.335381 C399.793447,91.335381 391.950911,84.8200434 389.779132,72.2719858 L387.728007,72.030677 L382.781177,90.3701458 C387.969316,92.3006162 397.259705,93.748469 404.860932,93.748469 C422.35582,93.748469 432.370135,85.6646242 432.370135,74.2024562 C432.370135,54.5357889 400.034756,52.9672817 400.034756,41.9877313 C400.034756,38.6094081 402.930462,36.0756657 407.153366,36.0756657 C414.030667,36.0756657 420.304695,41.7464225 424.165636,53.4498993 L425.975452,53.6912081 L429.957047,37.8854817 C425.010217,35.2310849 417.529644,33.6625777 410.169726,33.6625777 C393.760727,33.6625777 384.349684,42.8323121 384.349684,53.6912081 C384.349684,72.5132946 414.995902,74.8057282 414.995902,84.8200434 C414.995902,88.319021 411.617579,91.335381 407.032711,91.335381 L407.032711,91.335381 Z M494.024534,93.748469 C510.192224,93.748469 527.325148,79.3905954 527.325148,58.5173841 C527.325148,44.5214737 519.844576,33.6625777 506.693246,33.6625777 C499.9366,33.6625777 494.989769,36.5582833 490.163593,41.8670769 L490.163593,0.361963201 L489.198358,0 L460.603265,6.99795522 L460.603265,8.32515362 C463.740279,8.32515362 467.118603,9.65235202 467.118603,16.288344 L467.118603,92.9038882 L468.566455,92.9038882 L477.012263,86.6298594 C480.149278,90.2494914 485.940689,93.748469 494.024534,93.748469 L494.024534,93.748469 Z M494.507152,91.4560354 C492.094064,91.4560354 490.163593,89.2842562 490.163593,84.2167714 L490.163593,45.4867089 C491.249483,45.0040913 492.335372,44.7627825 493.421262,44.7627825 C499.574636,44.7627825 504.159504,50.7955025 504.159504,65.6359938 C504.159504,82.7689186 499.212673,91.4560354 494.507152,91.4560354 L494.507152,91.4560354 Z M567.985681,90.3701458 C565.089976,90.0081826 561.470344,88.0777122 561.470344,82.7689186 L561.470344,52.6053185 C562.314924,48.1411057 563.521468,45.7280177 566.537829,45.7280177 C571.002041,45.7280177 572.570549,51.2781201 578.603269,51.2781201 C584.153371,51.2781201 588.255621,46.6932529 588.255621,41.1431505 C588.255621,35.9550113 584.635989,31.7321073 578.723923,31.7321073 C572.570549,31.7321073 564.969321,35.9550113 561.229035,46.9345617 L561.229035,34.1451953 L560.2638,33.7832321 L531.186089,41.6257681 L531.186089,42.8323121 C534.564412,42.5910033 538.546008,44.0388561 538.546008,50.6748481 L538.546008,82.5276098 C538.546008,87.9570578 535.408993,90.0081826 532.392633,90.3701458 L532.392633,91.4560354 L567.985681,91.4560354 L567.985681,90.3701458 Z M649.427401,71.5480594 L647.496931,71.0654418 C644.239262,77.2188162 638.930469,80.5971394 632.777094,80.5971394 C623.728014,80.5971394 616.971368,74.2024562 616.006133,60.2065457 L649.427401,60.2065457 C648.703475,43.1942753 638.68916,33.6625777 623.60736,33.6625777 C606.957053,33.6625777 593.323105,47.5378337 593.323105,64.7914129 C593.323105,81.5623746 606.595089,93.748469 622.038853,93.748469 C635.431491,93.748469 646.169733,84.9406978 649.427401,71.5480594 L649.427401,71.5480594 Z M615.885478,56.4662593 C615.885478,43.3149297 620.470345,35.8343569 624.210632,35.8343569 C627.709609,35.8343569 630.002043,41.8670769 629.278117,57.4314945 L615.885478,57.4314945 L615.885478,56.4662593 Z M687.916155,83.1308818 C682.366053,83.1308818 677.419222,78.4253602 677.419222,63.3435601 C677.419222,47.5378337 682.728016,35.9550113 687.674846,35.9550113 C689.605317,35.9550113 690.932515,37.5235185 691.535787,39.9366065 L691.535787,82.1656466 C690.449898,82.889573 689.364008,83.1308818 687.916155,83.1308818 L687.916155,83.1308818 Z M691.89775,93.0245426 L692.862986,93.3865058 L720.734152,89.7668738 L720.734152,88.5603298 C717.717792,88.4396754 714.580778,86.7505138 714.580778,79.7525586 L714.580778,0.361963201 L713.615542,0 L685.02045,6.99795522 L685.02045,8.32515362 C688.278118,8.08384482 691.535787,10.1349696 691.535787,16.288344 L691.535787,33.9038865 C690.449898,33.7832321 689.243354,33.6625777 688.03681,33.6625777 C670.541922,33.6625777 654.85685,48.8650321 654.85685,69.014317 C654.85685,84.3374258 663.785275,93.748469 675.730061,93.748469 C681.521472,93.748469 686.830266,91.5766898 691.89775,85.302661 L691.89775,93.0245426 Z M751.621679,16.0470352 C751.621679,23.2862993 757.654399,28.9570561 764.652354,28.9570561 C771.650309,28.9570561 777.683029,23.1656449 777.683029,16.0470352 C777.683029,8.80777122 771.650309,3.13701441 764.652354,3.13701441 C757.654399,3.13701441 751.621679,8.92842562 751.621679,16.0470352 L751.621679,16.0470352 Z M782.750514,91.4560354 L782.750514,90.2494914 C779.854808,89.8875282 776.476485,87.715749 776.476485,82.4069554 L776.476485,50.3128849 L776.717794,34.1451953 L775.752559,33.7832321 L746.071576,41.6257681 L746.071576,42.8323121 C749.449899,42.5910033 753.552149,44.2801649 753.552149,50.7955025 L753.552149,82.4069554 C753.552149,87.715749 750.535789,89.8875282 747.640083,90.2494914 L747.640083,91.4560354 L782.750514,91.4560354 Z M819.912069,90.3701458 C817.257672,90.0081826 815.447856,88.319021 815.447856,82.6482642 L815.447856,46.9345617 C817.619635,45.0040913 819.791415,43.9182017 822.204503,43.9182017 C825.70348,43.9182017 828.357877,46.2106353 828.357877,50.7955025 L828.357877,82.6482642 C828.357877,88.319021 827.151333,90.0081826 823.77301,90.3701458 L823.77301,91.4560354 L857.194279,91.4560354 L857.194279,90.2494914 C854.057264,89.8875282 851.402868,87.715749 851.402868,82.4069554 L851.402868,49.7096129 C851.402868,39.0920257 844.766876,33.6625777 835.717796,33.6625777 C827.995914,33.6625777 820.75665,38.0061361 815.206547,44.1595105 L815.206547,34.1451953 L814.241312,33.7832321 L785.163602,41.6257681 L785.163602,42.8323121 C788.421271,42.5910033 792.52352,44.0388561 792.52352,50.6748481 L792.52352,82.4069554 C792.52352,87.715749 789.50716,89.8875282 786.611455,90.2494914 L786.611455,91.4560354 L819.912069,91.4560354 L819.912069,90.3701458 Z M924.760743,38.6094081 L924.760743,35.8343569 L912.695303,35.8343569 L912.695303,10.255624 L910.885487,10.255624 C906.541928,21.5971376 893.873216,34.5071585 883.617592,37.5235185 L883.617592,38.8507169 L889.770967,38.8507169 L889.770967,79.0286322 C889.770967,87.5950946 895.683032,93.5071602 904.611458,93.5071602 C914.143156,93.5071602 922.468309,86.6298594 926.811868,78.4253602 L925.243361,77.460125 C923.433545,80.1145218 921.261765,81.3210658 918.728023,81.3210658 C915.591009,81.3210658 912.695303,78.5460146 912.695303,73.237221 L912.695303,38.6094081 L924.760743,38.6094081 Z M962.284261,90.3701458 C959.871173,90.0081826 957.940703,88.0777122 957.940703,82.7689186 L957.940703,46.9345617 C960.112482,45.0040913 962.284261,43.9182017 964.697349,43.9182017 C968.196327,43.9182017 970.850724,46.2106353 970.850724,50.7955025 L970.850724,82.7689186 C970.850724,88.319021 969.402871,90.0081826 966.265857,90.3701458 L966.265857,91.4560354 L999.687125,91.4560354 L999.687125,90.2494914 C996.429457,89.8875282 993.77506,87.715749 993.77506,82.4069554 L993.77506,49.7096129 C993.77506,39.0920257 987.139068,33.6625777 978.089988,33.6625777 C970.368106,33.6625777 963.249497,37.8854817 957.940703,43.7975473 L957.940703,0.361963201 L956.975468,0 L928.380375,6.99795522 L928.380375,8.32515362 C931.517389,8.32515362 934.895713,9.65235202 934.895713,16.288344 L934.895713,82.4069554 C934.895713,87.715749 932.241316,89.8875282 929.586919,90.2494914 L929.586919,91.4560354 L962.284261,91.4560354 L962.284261,90.3701458 Z M1060.49694,71.5480594 L1058.56647,71.0654418 C1055.3088,77.2188162 1050.00001,80.5971394 1043.84664,80.5971394 C1034.79756,80.5971394 1028.04091,74.2024562 1027.07567,60.2065457 L1060.49694,60.2065457 C1059.77302,43.1942753 1049.7587,33.6625777 1034.6769,33.6625777 C1018.02659,33.6625777 1004.39265,47.5378337 1004.39265,64.7914129 C1004.39265,81.5623746 1017.66463,93.748469 1033.10839,93.748469 C1046.50103,93.748469 1057.23927,84.9406978 1060.49694,71.5480594 L1060.49694,71.5480594 Z M1026.95502,56.4662593 C1026.95502,43.3149297 1031.53989,35.8343569 1035.28017,35.8343569 C1038.77915,35.8343569 1041.07158,41.8670769 1040.34766,57.4314945 L1026.95502,57.4314945 L1026.95502,56.4662593 Z M1121.42742,93.748469 C1137.59511,93.748469 1154.72803,79.3905954 1154.72803,58.5173841 C1154.72803,44.5214737 1147.24746,33.6625777 1134.09613,33.6625777 C1127.33948,33.6625777 1122.39265,36.5582833 1117.56647,41.8670769 L1117.56647,0.361963201 L1116.60124,0 L1088.00615,6.99795522 L1088.00615,8.32515362 C1091.14316,8.32515362 1094.52148,9.65235202 1094.52148,16.288344 L1094.52148,92.9038882 L1095.96934,92.9038882 L1104.41514,86.6298594 C1107.55216,90.2494914 1113.34357,93.748469 1121.42742,93.748469 L1121.42742,93.748469 Z M1121.91003,91.4560354 C1119.49694,91.4560354 1117.56647,89.2842562 1117.56647,84.2167714 L1117.56647,45.4867089 C1118.65236,45.0040913 1119.73825,44.7627825 1120.82414,44.7627825 C1126.97752,44.7627825 1131.56239,50.7955025 1131.56239,65.6359938 C1131.56239,82.7689186 1126.61555,91.4560354 1121.91003,91.4560354 L1121.91003,91.4560354 Z M1192.61351,93.748469 C1210.71167,93.748469 1224.22496,79.269941 1224.22496,63.7055233 C1224.22496,47.1758705 1211.4356,33.6625777 1192.61351,33.6625777 C1175.35993,33.6625777 1161.00206,47.5378337 1161.00206,63.9468321 C1161.00206,80.476485 1174.3947,93.748469 1192.61351,93.748469 L1192.61351,93.748469 Z M1184.1677,63.3435601 C1184.1677,41.7464225 1188.1493,36.0756657 1192.13089,36.0756657 C1197.681,36.0756657 1200.81801,45.6073633 1200.81801,63.9468321 C1200.81801,86.1472418 1196.59511,91.4560354 1192.61351,91.4560354 C1187.30472,91.4560354 1184.1677,81.5623746 1184.1677,63.3435601 L1184.1677,63.3435601 Z M1262.83437,90.3701458 C1260.17998,90.0081826 1258.37016,88.319021 1258.37016,82.6482642 L1258.37016,46.9345617 C1260.54194,45.0040913 1262.71372,43.9182017 1265.12681,43.9182017 C1268.62578,43.9182017 1271.28018,46.2106353 1271.28018,50.7955025 L1271.28018,82.6482642 C1271.28018,88.319021 1270.07364,90.0081826 1266.69531,90.3701458 L1266.69531,91.4560354 L1300.11658,91.4560354 L1300.11658,90.2494914 C1296.97957,89.8875282 1294.32517,87.715749 1294.32517,82.4069554 L1294.32517,49.7096129 C1294.32517,39.0920257 1287.68918,33.6625777 1278.6401,33.6625777 C1270.91822,33.6625777 1263.67895,38.0061361 1258.12885,44.1595105 L1258.12885,34.1451953 L1257.16362,33.7832321 L1228.08591,41.6257681 L1228.08591,42.8323121 C1231.34357,42.5910033 1235.44582,44.0388561 1235.44582,50.6748481 L1235.44582,82.4069554 C1235.44582,87.715749 1232.42946,89.8875282 1229.53376,90.2494914 L1229.53376,91.4560354 L1262.83437,91.4560354 L1262.83437,90.3701458 Z M1360.9264,71.5480594 L1358.99593,71.0654418 C1355.73826,77.2188162 1350.42947,80.5971394 1344.27609,80.5971394 C1335.22701,80.5971394 1328.47037,74.2024562 1327.50513,60.2065457 L1360.9264,60.2065457 C1360.20247,43.1942753 1350.18816,33.6625777 1335.10636,33.6625777 C1318.45605,33.6625777 1304.8221,47.5378337 1304.8221,64.7914129 C1304.8221,81.5623746 1318.09409,93.748469 1333.53785,93.748469 C1346.93049,93.748469 1357.66873,84.9406978 1360.9264,71.5480594 L1360.9264,71.5480594 Z M1327.38448,56.4662593 C1327.38448,43.3149297 1331.96934,35.8343569 1335.70963,35.8343569 C1339.20861,35.8343569 1341.50104,41.8670769 1340.77712,57.4314945 L1327.38448,57.4314945 L1327.38448,56.4662593 Z M43.2596945,209.154403 C62.9263617,201.67383 92.7279986,174.647244 92.7279986,160.53068 C92.7279986,154.739268 88.022477,149.913092 80.9038674,149.913092 C74.5091842,149.913092 69.924317,154.015342 69.924317,159.927408 C69.924317,167.287326 76.3190002,171.751539 76.3190002,177.663604 C76.3190002,183.093052 69.8036626,189.729044 60.3926193,196.365036 C62.3230897,175.491825 61.9611265,159.082827 59.6686929,150.154401 L58.9447665,149.792438 L34.9345409,156.187121 L34.6932321,157.393665 C38.4335185,157.273011 41.0879153,160.289371 41.3292241,167.649289 C41.4498785,172.475465 41.4498785,178.62884 41.2085697,185.144177 C37.4682833,189.367081 33.4866881,192.745404 28.9018209,196.003073 C30.1083649,177.663604 28.4192033,156.549084 26.6093873,150.154401 L25.8854609,149.792438 L1.1513088,156.307776 L0.91,157.393665 C3.92636001,157.273011 7.18402881,160.168716 7.78730082,167.649289 C8.63188162,178.387531 8.87319042,194.917184 7.90795522,208.430476 L11.768896,209.154403 C18.404888,207.223932 30.8322913,198.778124 41.0879153,189.005118 C40.7259521,195.64111 40.2433345,202.397756 39.3987537,208.430476 L43.2596945,209.154403 Z M110.343541,132.418204 C110.343541,139.41616 116.014298,144.845608 122.770944,144.845608 C129.768899,144.845608 135.922274,139.054196 135.922274,131.935587 C135.922274,124.937631 130.251517,119.508183 123.374216,119.508183 C116.496915,119.508183 110.343541,125.17894 110.343541,132.418204 L110.343541,132.418204 Z M97.3128658,191.780169 C93.8138882,203.966264 98.278101,209.154403 107.447835,209.154403 C115.169717,209.154403 121.685055,206.017388 128.441701,198.174852 L127.114503,196.968308 C124.58076,199.984668 122.167672,201.070558 120.116547,201.070558 C117.100187,201.070558 116.979533,198.536816 118.54804,193.228022 L126.631885,165.839473 L131.216752,150.516364 L130.372171,150.154401 L99.484645,156.307776 L99.2433362,157.393665 C102.501005,157.152356 106.603255,158.600209 104.672784,165.598164 L97.3128658,191.780169 Z M157.881375,193.228022 L174.893645,131.332315 L178.633932,117.336404 L177.789351,116.974441 L147.263788,123.127815 L147.022479,124.334359 C150.038839,124.093051 154.382397,125.782212 152.331272,133.142131 L136.525546,191.780169 C133.62984,202.639065 137.008164,209.154403 146.660516,209.154403 C154.74436,209.154403 161.259698,206.017388 167.89569,198.174852 L166.447837,196.968308 C164.276058,199.864014 161.86297,201.070558 159.570536,201.070558 C157.278103,201.070558 156.312868,199.140088 157.881375,193.228022 L157.881375,193.228022 Z M196.9734,193.228022 L213.985671,131.332315 L217.725957,117.336404 L216.881376,116.974441 L186.355813,123.127815 L186.114504,124.334359 C189.130864,124.093051 193.474423,125.782212 191.423298,133.142131 L175.617572,191.780169 C172.721866,202.639065 176.100189,209.154403 185.752541,209.154403 C193.836386,209.154403 200.351724,206.017388 206.987716,198.174852 L205.539863,196.968308 C203.368084,199.864014 200.954996,201.070558 198.662562,201.070558 C196.370128,201.070558 195.404893,199.140088 196.9734,193.228022 L196.9734,193.228022 Z M287.584855,190.211662 L285.895693,189.367081 C283.241297,193.107368 278.173812,195.399801 272.865018,195.399801 C262.971357,195.399801 256.45602,188.160537 256.45602,176.336406 C256.45602,163.185076 263.453975,152.205526 269.969313,152.205526 C274.433525,152.205526 274.071562,159.686099 275.398761,164.39162 C276.725959,168.976488 280.224937,171.268921 284.085877,171.268921 C288.670745,171.268921 292.772994,167.890598 292.772994,162.943768 C292.772994,155.945812 284.689149,149.792438 272.865018,149.792438 C251.026572,149.792438 236.186081,168.373216 236.186081,186.350721 C236.186081,200.346632 246.441705,209.878329 259.110417,209.878329 C269.124732,209.878329 280.5869,203.724955 287.584855,190.211662 L287.584855,190.211662 Z M355.754591,173.923318 C355.754591,160.771988 345.137004,149.792438 329.089969,149.792438 C311.474426,149.792438 294.220847,166.5634 294.220847,185.988758 C294.220847,199.140088 304.597125,209.878329 319.920234,209.878329 C338.380358,209.878329 355.754591,193.107368 355.754591,173.923318 L355.754591,173.923318 Z M335.122689,162.702459 C335.122689,175.733134 328.124734,207.70655 318.472382,207.70655 C315.69733,207.70655 314.370132,204.086918 314.370132,198.536816 C314.370132,183.334361 321.850705,151.964217 330.537822,151.964217 C333.674836,151.964217 335.122689,156.187121 335.122689,162.702459 L335.122689,162.702459 Z M439.126782,209.154403 C446.728009,209.154403 453.243347,206.017388 459.999993,198.174852 L458.55214,196.968308 C456.259707,199.864014 453.846619,201.070558 451.674839,201.070558 C449.261751,201.070558 448.175862,199.019433 449.865023,193.228022 L456.862979,169.941723 C460.723919,157.031702 456.62167,149.792438 448.175862,149.792438 C442.022487,149.792438 434.903878,153.291416 425.130871,162.340496 C425.37218,154.256651 421.752548,149.792438 415.357865,149.792438 C409.807763,149.792438 403.533734,152.205526 393.398764,161.37526 L396.29447,150.516364 L395.449889,150.154401 L365.04498,156.307776 L364.803671,157.393665 C368.06134,157.152356 372.042935,158.600209 370.233119,165.598164 L359.132914,207.585896 L381.333324,207.585896 L392.433529,165.356856 C397.259705,161.133952 399.190175,160.289371 400.758683,160.289371 C403.051116,160.289371 404.25766,162.099187 402.689153,167.649289 L391.709602,207.585896 L414.030667,207.585896 L424.044982,169.941723 C424.406945,168.49387 424.648254,167.046017 424.889563,165.718819 C429.836393,161.37526 432.128827,160.651334 433.576679,160.651334 C436.231076,160.651334 437.075657,162.702459 435.50715,167.890598 L428.629849,191.780169 C425.251526,203.362992 429.715739,209.154403 439.126782,209.154403 L439.126782,209.154403 Z M488.957049,209.878329 C499.092019,209.878329 509.588952,204.931499 516.94887,190.935588 L515.621672,190.091008 C512.122694,193.951948 507.417172,196.003073 501.505107,196.003073 C493.662571,196.003073 487.629851,192.021478 485.69938,183.937633 C506.089974,179.111457 518.03476,168.855833 518.03476,160.168716 C518.03476,154.618614 513.087929,149.792438 502.470342,149.792438 C480.511241,149.792438 465.308787,168.855833 465.308787,186.230067 C465.308787,199.984668 475.805719,209.878329 488.957049,209.878329 L488.957049,209.878329 Z M485.096108,178.266876 C485.096108,165.839473 492.214718,152.808798 497.161548,152.808798 C499.333328,152.808798 500.901835,155.583849 500.901835,160.048062 C500.901835,168.735179 495.593041,178.266876 485.337417,181.765854 C485.216763,180.679964 485.096108,179.47342 485.096108,178.266876 L485.096108,178.266876 Z M607.077707,173.923318 C607.077707,160.771988 596.46012,149.792438 580.413085,149.792438 C562.797542,149.792438 545.543963,166.5634 545.543963,185.988758 C545.543963,199.140088 555.920241,209.878329 571.24335,209.878329 C589.703473,209.878329 607.077707,193.107368 607.077707,173.923318 L607.077707,173.923318 Z M586.445805,162.702459 C586.445805,175.733134 579.447849,207.70655 569.795497,207.70655 C567.020446,207.70655 565.693248,204.086918 565.693248,198.536816 C565.693248,183.334361 573.173821,151.964217 581.860937,151.964217 C584.997952,151.964217 586.445805,156.187121 586.445805,162.702459 L586.445805,162.702459 Z M648.462166,195.158492 C647.014313,204.086918 650.513291,209.154403 659.562371,209.154403 C667.284253,209.154403 673.678936,206.138043 680.556237,198.174852 L679.108384,196.968308 C676.453987,199.984668 673.920245,201.070558 671.989774,201.070558 C669.456032,201.070558 669.214723,199.140088 670.300613,194.917184 L678.143149,165.839473 L682.124744,150.516364 L681.280163,150.154401 L652.323107,156.307776 L652.081798,157.393665 C654.85685,157.51432 657.631901,159.565444 656.063394,165.598164 L649.186093,191.780169 C642.791409,197.812889 640.257667,199.140088 637.844579,199.140088 C635.431491,199.140088 634.707565,197.330272 635.914109,192.866059 L643.032718,167.287326 L647.858894,150.516364 L647.014313,150.154401 L616.609405,156.307776 L616.368096,157.393665 C619.987728,157.273011 623.728014,159.082827 621.797544,165.598164 L614.799589,189.729044 C610.817993,203.242337 614.678934,209.757675 622.762779,209.757675 C629.398771,209.757675 637.844579,205.414116 648.462166,195.158492 L648.462166,195.158492 Z M686.347648,192.62475 C684.175869,200.58794 687.674846,209.63702 699.257669,209.63702 C707.100205,209.63702 715.304704,205.414116 723.509203,195.882419 L722.543968,194.917184 C719.648262,197.330272 716.993866,198.416161 714.701432,198.416161 C710.357874,198.416161 707.582822,195.279147 709.271984,189.005118 L718.562373,154.739268 L730.627813,154.739268 L731.351739,151.964217 L719.286299,151.964217 L726.404909,126.506139 L724.474438,126.506139 C716.511248,136.761763 702.153374,150.154401 689.846626,153.774033 L689.605317,154.980577 L696.482618,154.980577 L686.347648,192.62475 Z M769.116567,132.418204 C769.116567,139.41616 774.787323,144.845608 781.54397,144.845608 C788.541925,144.845608 794.695299,139.054196 794.695299,131.935587 C794.695299,124.937631 789.024543,119.508183 782.147242,119.508183 C775.269941,119.508183 769.116567,125.17894 769.116567,132.418204 L769.116567,132.418204 Z M756.085891,191.780169 C752.586914,203.966264 757.051127,209.154403 766.220861,209.154403 C773.942743,209.154403 780.45808,206.017388 787.214727,198.174852 L785.887528,196.968308 C783.353786,199.984668 780.940698,201.070558 778.889573,201.070558 C775.873213,201.070558 775.752559,198.536816 777.321066,193.228022 L785.404911,165.839473 L789.989778,150.516364 L789.145197,150.154401 L758.257671,156.307776 L758.016362,157.393665 C761.274031,157.152356 765.37628,158.600209 763.44581,165.598164 L756.085891,191.780169 Z M840.78528,209.154403 C848.507162,209.154403 855.143154,206.017388 861.8998,198.174852 L860.572602,196.968308 C858.03886,199.864014 855.86708,201.070558 853.695301,201.070558 C851.161559,201.070558 850.075669,199.260742 851.885485,193.228022 L858.642132,169.941723 C862.503072,156.790393 858.03886,149.792438 850.075669,149.792438 C844.525567,149.792438 836.683031,153.170761 825.100208,164.512275 L828.71984,150.516364 L827.87526,150.154401 L797.591005,156.307776 L797.349696,157.393665 C800.728019,157.152356 804.58896,158.600209 802.65849,165.598164 L791.558285,207.585896 L813.758695,207.585896 L824.255627,168.131907 C830.650311,162.099187 833.063399,160.651334 835.114524,160.651334 C837.889575,160.651334 838.613501,163.305731 837.044994,168.855833 L830.529656,191.780169 C827.392642,202.639065 830.89162,209.154403 840.78528,209.154403 L840.78528,209.154403 Z M890.615548,192.62475 C888.443768,200.58794 891.942746,209.63702 903.525568,209.63702 C911.368104,209.63702 919.572604,205.414116 927.777103,195.882419 L926.811868,194.917184 C923.916162,197.330272 921.261765,198.416161 918.969332,198.416161 C914.625773,198.416161 911.850722,195.279147 913.539884,189.005118 L922.830273,154.739268 L934.895713,154.739268 L935.619639,151.964217 L923.554199,151.964217 L930.672809,126.506139 L928.742338,126.506139 C920.779148,136.761763 906.421274,150.154401 894.114525,153.774033 L893.873216,154.980577 L900.750517,154.980577 L890.615548,192.62475 Z M982.192237,209.154403 C989.793465,209.154403 996.429457,206.017388 1003.1861,198.174852 L1001.73825,196.968308 C999.445817,199.864014 997.032729,201.070558 994.860949,201.070558 C992.447861,201.070558 991.241317,199.140088 993.051133,193.228022 L1000.04909,169.941723 C1004.03068,156.790393 999.445817,149.792438 991.482626,149.792438 C985.811869,149.792438 978.210642,153.050107 966.748474,164.150312 L975.6769,131.332315 L979.296532,117.336404 L978.451951,116.974441 L948.288351,123.127815 L948.047042,124.334359 C951.184057,124.093051 955.406961,125.782212 953.597145,133.142131 L933.085897,207.585896 L955.044997,207.585896 L965.783239,168.011252 C971.936613,162.099187 974.470356,160.651334 976.521481,160.651334 C979.296532,160.651334 980.020458,163.305731 978.451951,168.855833 L971.815959,191.780169 C968.678945,202.639065 972.298577,209.154403 982.192237,209.154403 L982.192237,209.154403 Z M1032.26381,209.878329 C1042.39878,209.878329 1052.89572,204.931499 1060.25563,190.935588 L1058.92844,190.091008 C1055.42946,193.951948 1050.72394,196.003073 1044.81187,196.003073 C1036.96934,196.003073 1030.93662,192.021478 1029.00614,183.937633 C1049.39674,179.111457 1061.34152,168.855833 1061.34152,160.168716 C1061.34152,154.618614 1056.39469,149.792438 1045.77711,149.792438 C1023.81801,149.792438 1008.61555,168.855833 1008.61555,186.230067 C1008.61555,199.984668 1019.11248,209.878329 1032.26381,209.878329 L1032.26381,209.878329 Z M1028.40287,178.266876 C1028.40287,165.839473 1035.52148,152.808798 1040.46831,152.808798 C1042.64009,152.808798 1044.2086,155.583849 1044.2086,160.048062 C1044.2086,168.735179 1038.89981,178.266876 1028.64418,181.765854 C1028.52353,180.679964 1028.40287,179.47342 1028.40287,178.266876 L1028.40287,178.266876 Z M1072.07977,236.301643 C1084.86913,236.301643 1105.62169,227.252563 1111.29245,205.293462 L1122.15134,163.909003 C1122.99592,160.771988 1123.47854,157.755628 1123.8405,154.739268 L1134.45809,154.739268 L1135.18202,151.964217 L1124.20247,151.964217 C1124.68508,147.258696 1124.92639,142.794483 1125.40901,138.812888 C1126.73621,129.28119 1131.20042,122.16258 1140.00819,122.16258 C1148.69531,122.16258 1150.38447,129.763807 1149.17793,134.469329 L1133.73416,191.780169 C1129.99388,205.172808 1136.0266,209.154403 1144.11044,209.154403 C1151.83232,209.154403 1158.46832,206.017388 1165.22496,198.174852 L1163.77711,196.968308 C1161.36402,199.984668 1158.58897,201.070558 1156.77915,201.070558 C1153.64214,201.070558 1153.76279,198.536816 1155.08999,193.228022 L1172.22292,131.332315 L1175.84255,117.336404 L1174.99797,116.974441 L1153.88345,121.317999 C1150.62578,119.749492 1146.88549,118.904911 1142.66259,118.904911 C1131.92435,118.904911 1109.60328,125.058286 1102.84664,151.722908 L1102.84664,151.964217 L1094.64214,151.964217 L1093.91821,154.739268 L1102.12271,154.739268 L1092.47036,193.951948 C1087.76484,211.929454 1087.28222,231.596121 1081.00819,231.596121 C1076.30267,231.596121 1076.66463,220.254608 1068.46013,220.254608 C1063.63396,220.254608 1060.49694,224.356857 1060.49694,228.217798 C1060.49694,232.440702 1064.11658,236.301643 1072.07977,236.301643 L1072.07977,236.301643 Z M1194.54398,209.878329 C1204.67895,209.878329 1215.17588,204.931499 1222.5358,190.935588 L1221.2086,190.091008 C1217.70963,193.951948 1213.00411,196.003073 1207.09204,196.003073 C1199.2495,196.003073 1193.21678,192.021478 1191.28631,183.937633 C1211.67691,179.111457 1223.62169,168.855833 1223.62169,160.168716 C1223.62169,154.618614 1218.67486,149.792438 1208.05727,149.792438 C1186.09817,149.792438 1170.89572,168.855833 1170.89572,186.230067 C1170.89572,199.984668 1181.39265,209.878329 1194.54398,209.878329 L1194.54398,209.878329 Z M1190.68304,178.266876 C1190.68304,165.839473 1197.80165,152.808798 1202.74848,152.808798 C1204.92026,152.808798 1206.48877,155.583849 1206.48877,160.048062 C1206.48877,168.735179 1201.17997,178.266876 1190.92435,181.765854 C1190.8037,180.679964 1190.68304,179.47342 1190.68304,178.266876 L1190.68304,178.266876 Z M1244.73621,209.63702 C1259.81801,209.63702 1272.00411,201.67383 1272.00411,190.935588 C1272.00411,174.888553 1248.4765,168.49387 1248.4765,158.600209 C1248.4765,154.859923 1251.1309,152.32618 1254.38856,152.32618 C1260.17998,152.32618 1259.93867,159.082827 1261.62783,163.667694 C1262.95503,166.925363 1265.85073,169.700414 1270.07364,169.700414 C1274.29654,169.700414 1278.15748,166.804708 1278.15748,161.978532 C1278.15748,155.704504 1271.52149,149.792438 1258.0082,149.792438 C1243.40901,149.792438 1232.55012,158.3589 1232.55012,169.217796 C1232.55012,185.868104 1254.14726,190.69428 1254.14726,201.311867 C1254.14726,204.931499 1251.3722,207.223932 1247.63192,207.223932 C1242.08182,207.223932 1241.96116,202.035793 1240.75462,197.209617 C1239.78938,192.62475 1236.2904,189.849699 1232.18815,189.849699 C1227.8446,189.849699 1223.98366,193.107368 1223.98366,197.692235 C1223.98366,203.845609 1230.37834,209.63702 1244.73621,209.63702 L1244.73621,209.63702 Z M1327.62579,209.154403 C1335.22701,209.154403 1341.863,206.017388 1348.61965,198.174852 L1347.1718,196.968308 C1344.87936,199.864014 1342.46628,201.070558 1340.2945,201.070558 C1337.88141,201.070558 1336.67487,199.140088 1338.48468,193.228022 L1345.48264,169.941723 C1349.46423,156.790393 1344.87936,149.792438 1336.91617,149.792438 C1331.24542,149.792438 1323.64419,153.050107 1312.18202,164.150312 L1321.11045,131.332315 L1324.73008,117.336404 L1323.8855,116.974441 L1293.7219,123.127815 L1293.48059,124.334359 C1296.6176,124.093051 1300.84051,125.782212 1299.03069,133.142131 L1278.51944,207.585896 L1300.47855,207.585896 L1311.21679,168.011252 C1317.37016,162.099187 1319.9039,160.651334 1321.95503,160.651334 C1324.73008,160.651334 1325.45401,163.305731 1323.8855,168.855833 L1317.24951,191.780169 C1314.11249,202.639065 1317.73212,209.154403 1327.62579,209.154403 L1327.62579,209.154403 Z M1354.16975,196.727 C1354.16975,203.362992 1359.5992,208.79244 1366.11454,208.79244 C1372.99184,208.79244 1378.6626,203.242337 1378.6626,196.365036 C1378.6626,189.729044 1373.3538,184.299596 1366.59716,184.299596 C1359.96116,184.299596 1354.16975,189.729044 1354.16975,196.727 L1354.16975,196.727 Z" id="bred-in-bone" fill="#FFFFFF" sketch:type="MSShapeGroup"></path>
    </g>
</svg>